<svg version="1.1" xmlns="http://www.w3.org/2000/svg" xmlns:xlink="http://www.w3.org/1999/xlink" width="749" height="388"><defs/><g><g transform="translate(-430,-318) scale(1,1)"><rect fill="#C0C0C0" stroke="none" x="759" y="335" width="80" height="15" opacity="0.2"/></g><g transform="translate(-430,-318) scale(1,1)"><rect fill="#C0C0C0" stroke="none" x="759" y="349" width="200" height="354" opacity="0.2"/></g><g transform="translate(-430,-318) scale(1,1)"><rect fill="#ffffff" stroke="none" x="752" y="343" width="200" height="353"/></g><g transform="translate(-430,-318) scale(1,1)"><path fill="none" stroke="#000000" d="M 752 343 L 952 343 L 952 696 L 752 696 L 752 343 Z Z" stroke-miterlimit="10"/></g><g transform="translate(-430,-318) scale(1,1)"><rect fill="#ffffff" stroke="none" x="752" y="328" width="80" height="15"/></g><g transform="translate(-430,-318) scale(1,1)"><path fill="none" stroke="#000000" d="M 752 328 L 832 328 L 832 343 L 752 343 L 752 328 Z Z" stroke-miterlimit="10"/></g><g transform="translate(-430,-318) scale(1,1)"><rect fill="#ffffff" stroke="none" x="752" y="342" width="200" height="354"/></g><g transform="translate(-430,-318) scale(1,1)"><path fill="none" stroke="#000000" d="M 752 342 L 952 342 L 952 696 L 752 696 L 752 342 Z Z" stroke-miterlimit="10"/></g><g transform="translate(-430,-318) scale(1,1)"><g><path fill="none" stroke="none"/><text fill="#000000" stroke="none" font-family="Arial" font-size="13px" font-style="normal" font-weight="bold" text-decoration="none" x="826.34912109375" y="362.5">fragment</text></g></g><g transform="translate(-430,-318) scale(1,1)"><rect fill="#C0C0C0" stroke="none" x="783" y="503" width="152" height="80" opacity="0.2"/></g><g transform="translate(-430,-318) scale(1,1)"><rect fill="#ffffff" stroke="none" x="776" y="496" width="152" height="80"/></g><g transform="translate(-430,-318) scale(1,1)"><path fill="none" stroke="#000000" d="M 776 496 L 928 496 L 928 576 L 776 576 L 776 496 Z Z" stroke-miterlimit="10"/></g><g transform="translate(-430,-318) scale(1,1)"><path fill="none" stroke="#000000" d="M 776 521 L 928 521" stroke-miterlimit="10"/></g><g transform="translate(-430,-318) scale(1,1)"><path fill="none" stroke="#000000" d="M 776 544 L 928 544" stroke-miterlimit="10"/></g><g transform="translate(-430,-318) scale(1,1)"><g><path fill="none" stroke="none"/><text fill="#000000" stroke="none" font-family="Arial" font-size="13px" font-style="normal" font-weight="bold" text-decoration="none" x="813.3427734375" y="515.5">InfoFragment</text></g></g><g transform="translate(-430,-318) scale(1,1)"><g><path fill="none" stroke="none"/><text fill="#000000" stroke="none" font-family="Arial" font-size="13px" font-style="normal" font-weight="normal" text-decoration="none" x="781" y="538.5">+...</text></g></g><g transform="translate(-430,-318) scale(1,1)"><g><path fill="none" stroke="none"/><text fill="#000000" stroke="none" font-family="Arial" font-size="13px" font-style="normal" font-weight="normal" text-decoration="none" x="781" y="561.5">+...()</text></g></g><g transform="translate(-430,-318) scale(1,1)"><rect fill="#C0C0C0" stroke="none" x="783" y="391" width="152" height="80" opacity="0.2"/></g><g transform="translate(-430,-318) scale(1,1)"><rect fill="#ffffff" stroke="none" x="776" y="384" width="152" height="80"/></g><g transform="translate(-430,-318) scale(1,1)"><path fill="none" stroke="#000000" d="M 776 384 L 928 384 L 928 464 L 776 464 L 776 384 Z Z" stroke-miterlimit="10"/></g><g transform="translate(-430,-318) scale(1,1)"><path fill="none" stroke="#000000" d="M 776 409 L 928 409" stroke-miterlimit="10"/></g><g transform="translate(-430,-318) scale(1,1)"><path fill="none" stroke="#000000" d="M 776 432 L 928 432" stroke-miterlimit="10"/></g><g transform="translate(-430,-318) scale(1,1)"><g><path fill="none" stroke="none"/><text fill="#000000" stroke="none" font-family="Arial" font-size="13px" font-style="normal" font-weight="bold" text-decoration="none" x="800.6982421875" y="403.5">SettingsFragment</text></g></g><g transform="translate(-430,-318) scale(1,1)"><g><path fill="none" stroke="none"/><text fill="#000000" stroke="none" font-family="Arial" font-size="13px" font-style="normal" font-weight="normal" text-decoration="none" x="781" y="426.5">+...</text></g></g><g transform="translate(-430,-318) scale(1,1)"><g><path fill="none" stroke="none"/><text fill="#000000" stroke="none" font-family="Arial" font-size="13px" font-style="normal" font-weight="normal" text-decoration="none" x="781" y="449.5">+...()</text></g></g><g transform="translate(-430,-318) scale(1,1)"><rect fill="#C0C0C0" stroke="none" x="447" y="367" width="80" height="15" opacity="0.2"/></g><g transform="translate(-430,-318) scale(1,1)"><rect fill="#C0C0C0" stroke="none" x="447" y="381" width="200" height="194" opacity="0.2"/></g><g transform="translate(-430,-318) scale(1,1)"><rect fill="#ffffff" stroke="none" x="440" y="375" width="200" height="193"/></g><g transform="translate(-430,-318) scale(1,1)"><path fill="none" stroke="#000000" d="M 440 375 L 640 375 L 640 568 L 440 568 L 440 375 Z Z" stroke-miterlimit="10"/></g><g transform="translate(-430,-318) scale(1,1)"><rect fill="#ffffff" stroke="none" x="440" y="360" width="80" height="15"/></g><g transform="translate(-430,-318) scale(1,1)"><path fill="none" stroke="#000000" d="M 440 360 L 520 360 L 520 375 L 440 375 L 440 360 Z Z" stroke-miterlimit="10"/></g><g transform="translate(-430,-318) scale(1,1)"><rect fill="#ffffff" stroke="none" x="440" y="374" width="200" height="194"/></g><g transform="translate(-430,-318) scale(1,1)"><path fill="none" stroke="#000000" d="M 440 374 L 640 374 L 640 568 L 440 568 L 440 374 Z Z" stroke-miterlimit="10"/></g><g transform="translate(-430,-318) scale(1,1)"><g><path fill="none" stroke="none"/><text fill="#000000" stroke="none" font-family="Arial" font-size="13px" font-style="normal" font-weight="bold" text-decoration="none" x="520.135009765625" y="394.5">activity</text></g></g><g transform="translate(-430,-318) scale(1,1)"><rect fill="#C0C0C0" stroke="none" x="471" y="447" width="152" height="80" opacity="0.2"/></g><g transform="translate(-430,-318) scale(1,1)"><rect fill="#ffffff" stroke="none" x="464" y="440" width="152" height="80"/></g><g transform="translate(-430,-318) scale(1,1)"><path fill="none" stroke="#000000" d="M 464 440 L 616 440 L 616 520 L 464 520 L 464 440 Z Z" stroke-miterlimit="10"/></g><g transform="translate(-430,-318) scale(1,1)"><path fill="none" stroke="#000000" d="M 464 465 L 616 465" stroke-miterlimit="10"/></g><g transform="translate(-430,-318) scale(1,1)"><path fill="none" stroke="#000000" d="M 464 488 L 616 488" stroke-miterlimit="10"/></g><g transform="translate(-430,-318) scale(1,1)"><g><path fill="none" stroke="none"/><text fill="#000000" stroke="none" font-family="Arial" font-size="13px" font-style="normal" font-weight="bold" text-decoration="none" x="495.92822265625" y="459.5">SettingsActivity</text></g></g><g transform="translate(-430,-318) scale(1,1)"><g><path fill="none" stroke="none"/><text fill="#000000" stroke="none" font-family="Arial" font-size="13px" font-style="normal" font-weight="normal" text-decoration="none" x="469" y="482.5">+...</text></g></g><g transform="translate(-430,-318) scale(1,1)"><g><path fill="none" stroke="none"/><text fill="#000000" stroke="none" font-family="Arial" font-size="13px" font-style="normal" font-weight="normal" text-decoration="none" x="469" y="505.5">+...()</text></g></g><g transform="translate(-430,-318) scale(1,1)"><path fill="none" stroke="#000000" d="M 617 480 L 696 480 L 696 424 L 775 424" stroke-miterlimit="10"/></g><g transform="translate(-430,-318) scale(1,1)"><path fill="none" stroke="#000000" d="M 764.8373251423759 428.209517756016 L 775 424 L 764.8373251423758 419.790482243984" stroke-miterlimit="10"/></g><g transform="translate(-430,-318) scale(1,1)"><g><path fill="none" stroke="none"/><text fill="#000000" stroke="none" font-family="Arial" font-size="13px" font-style="normal" font-weight="normal" text-decoration="none" x="646.5" y="412.5">+wählt Fragment</text></g></g><g transform="translate(-430,-318) scale(1,1)"><path fill="none" stroke="#000000" d="M 617 480 L 696 480 L 696 536 L 775 536" stroke-miterlimit="10"/></g><g transform="translate(-430,-318) scale(1,1)"><path fill="none" stroke="#000000" d="M 764.8373251423759 540.209517756016 L 775 536 L 764.8373251423758 531.790482243984" stroke-miterlimit="10"/></g><g transform="translate(-430,-318) scale(1,1)"><rect fill="#C0C0C0" stroke="none" x="1007" y="439" width="144" height="80" opacity="0.2"/></g><g transform="translate(-430,-318) scale(1,1)"><rect fill="#ffffff" stroke="none" x="1000" y="432" width="144" height="80"/></g><g transform="translate(-430,-318) scale(1,1)"><path fill="none" stroke="#000000" d="M 1000 432 L 1144 432 L 1144 512 L 1000 512 L 1000 432 Z Z" stroke-miterlimit="10"/></g><g transform="translate(-430,-318) scale(1,1)"><path fill="none" stroke="#000000" d="M 1000 457 L 1144 457" stroke-miterlimit="10"/></g><g transform="translate(-430,-318) scale(1,1)"><path fill="none" stroke="#000000" d="M 1000 480 L 1144 480" stroke-miterlimit="10"/></g><g transform="translate(-430,-318) scale(1,1)"><g><path fill="none" stroke="none"/><text fill="#000000" stroke="none" font-family="Arial" font-size="13px" font-style="normal" font-weight="bold" text-decoration="none" x="1012.38916015625" y="451.5">PreferenceFragment</text></g></g><g transform="translate(-430,-318) scale(1,1)"><g><path fill="none" stroke="none"/><text fill="#000000" stroke="none" font-family="Arial" font-size="13px" font-style="normal" font-weight="normal" text-decoration="none" x="1005" y="474.5">+...</text></g></g><g transform="translate(-430,-318) scale(1,1)"><g><path fill="none" stroke="none"/><text fill="#000000" stroke="none" font-family="Arial" font-size="13px" font-style="normal" font-weight="normal" text-decoration="none" x="1005" y="497.5">+...()</text></g></g><g transform="translate(-430,-318) scale(1,1)"><path fill="none" stroke="#000000" d="M 929 424 L 968 424 L 968 472 L 999 472" stroke-miterlimit="10"/></g><g transform="translate(-430,-318) scale(1,1)"><path fill="#FFFFFF" stroke="none" d="M 978.6746502847517 480.419035512032 L 999 472 L 978.6746502847517 463.580964487968"/></g><g transform="translate(-430,-318) scale(1,1)"><path fill="none" stroke="#000000" d="M 978.6746502847517 480.419035512032 L 999 472 L 978.6746502847517 463.580964487968 L 978.6746502847517 480.419035512032" stroke-miterlimit="10"/></g><g transform="translate(-430,-318) scale(1,1)"><path fill="none" stroke="#000000" d="M 929 536 L 968 536 L 968 472 L 999 472" stroke-miterlimit="10"/></g><g transform="translate(-430,-318) scale(1,1)"><path fill="#FFFFFF" stroke="none" d="M 978.6746502847517 480.419035512032 L 999 472 L 978.6746502847517 463.580964487968"/></g><g transform="translate(-430,-318) scale(1,1)"><path fill="none" stroke="#000000" d="M 978.6746502847517 480.419035512032 L 999 472 L 978.6746502847517 463.580964487968 L 978.6746502847517 480.419035512032" stroke-miterlimit="10"/></g><g transform="translate(-430,-318) scale(1,1)"><rect fill="#C0C0C0" stroke="none" x="1007" y="343" width="144" height="80" opacity="0.2"/></g><g transform="translate(-430,-318) scale(1,1)"><rect fill="#ffffff" stroke="none" x="1000" y="336" width="144" height="80"/></g><g transform="translate(-430,-318) scale(1,1)"><path fill="none" stroke="#000000" d="M 1000 336 L 1144 336 L 1144 416 L 1000 416 L 1000 336 Z Z" stroke-miterlimit="10"/></g><g transform="translate(-430,-318) scale(1,1)"><path fill="none" stroke="#000000" d="M 1000 361 L 1144 361" stroke-miterlimit="10"/></g><g transform="translate(-430,-318) scale(1,1)"><path fill="none" stroke="#000000" d="M 1000 384 L 1144 384" stroke-miterlimit="10"/></g><g transform="translate(-430,-318) scale(1,1)"><g><path fill="none" stroke="none"/><text fill="#000000" stroke="none" font-family="Arial" font-size="13px" font-style="normal" font-weight="bold" text-decoration="none" x="1038.398681640625" y="355.5">Serializable</text></g></g><g transform="translate(-430,-318) scale(1,1)"><g><path fill="none" stroke="none"/><text fill="#000000" stroke="none" font-family="Arial" font-size="13px" font-style="normal" font-weight="normal" text-decoration="none" x="1005" y="378.5">+...</text></g></g><g transform="translate(-430,-318) scale(1,1)"><g><path fill="none" stroke="none"/><text fill="#000000" stroke="none" font-family="Arial" font-size="13px" font-style="normal" font-weight="normal" text-decoration="none" x="1005" y="401.5">+...()</text></g></g><g transform="translate(-430,-318) scale(1,1)"><path fill="none" stroke="#000000" d="M 929 536 L 1168 536 L 1168 376 L 1145 376" stroke-miterlimit="10" stroke-dasharray="3"/></g><g transform="translate(-430,-318) scale(1,1)"><path fill="none" stroke="#000000" d="M 1155.162674857624 371.790482243984 L 1145 376 L 1155.162674857624 380.209517756016" stroke-miterlimit="10"/></g><g transform="translate(-430,-318) scale(1,1)"><path fill="none" stroke="#000000" d="M 855 383 L 856 376 L 999 376" stroke-miterlimit="10" stroke-dasharray="3"/></g><g transform="translate(-430,-318) scale(1,1)"><path fill="none" stroke="#000000" d="M 988.8373251423759 380.209517756016 L 999 376 L 988.8373251423758 371.790482243984" stroke-miterlimit="10"/></g><g transform="translate(-430,-318) scale(1,1)"><rect fill="#C0C0C0" stroke="none" x="783" y="615" width="151" height="71" opacity="0.2"/></g><g transform="translate(-430,-318) scale(1,1)"><rect fill="#ffffff" stroke="none" x="776" y="608" width="151" height="71"/></g><g transform="translate(-430,-318) scale(1,1)"><path fill="none" stroke="#000000" d="M 776 608 L 927 608 L 927 679 L 776 679 L 776 608 Z Z" stroke-miterlimit="10"/></g><g transform="translate(-430,-318) scale(1,1)"><path fill="none" stroke="#000000" d="M 776 633 L 927 633" stroke-miterlimit="10"/></g><g transform="translate(-430,-318) scale(1,1)"><path fill="none" stroke="#000000" d="M 776 656 L 927 656" stroke-miterlimit="10"/></g><g transform="translate(-430,-318) scale(1,1)"><g><path fill="none" stroke="none"/><text fill="#000000" stroke="none" font-family="Arial" font-size="13px" font-style="normal" font-weight="bold" text-decoration="none" x="795.865966796875" y="627.5">DialogClickListener</text></g></g><g transform="translate(-430,-318) scale(1,1)"><g><path fill="none" stroke="none"/><text fill="#000000" stroke="none" font-family="Arial" font-size="13px" font-style="normal" font-weight="normal" text-decoration="none" x="781" y="650.5">+...</text></g></g><g transform="translate(-430,-318) scale(1,1)"><g><path fill="none" stroke="none"/><text fill="#000000" stroke="none" font-family="Arial" font-size="13px" font-style="normal" font-weight="normal" text-decoration="none" x="781" y="673.5">+...()</text></g></g><g transform="translate(-430,-318) scale(1,1)"><path fill="none" stroke="#000000" d="M 851 607 L 852 577" stroke-miterlimit="10"/></g><g transform="translate(-430,-318) scale(1,1)"><path fill="#FFFFFF" stroke="none" d="M 844.7667961883716 583.9961143488541 C 844.7667961883716 580.1301207488541 847.9008025883716 576.9961143488541 851.7667961883716 576.9961143488541 C 855.6327897883716 576.9961143488541 858.7667961883716 580.1301207488541 858.7667961883716 583.9961143488541 C 858.7667961883716 587.8621079488541 855.6327897883716 590.9961143488541 851.7667961883716 590.9961143488541 C 847.9008025883716 590.9961143488541 844.7667961883716 587.8621079488541 844.7667961883716 583.9961143488541 Z"/></g><g transform="translate(-430,-318) scale(1,1)"><path fill="none" stroke="#000000" d="M 844.7667961883716 583.9961143488541 C 844.7667961883716 580.1301207488541 847.9008025883716 576.9961143488541 851.7667961883716 576.9961143488541 C 855.6327897883716 576.9961143488541 858.7667961883716 580.1301207488541 858.7667961883716 583.9961143488541 C 858.7667961883716 587.8621079488541 855.6327897883716 590.9961143488541 851.7667961883716 590.9961143488541 C 847.9008025883716 590.9961143488541 844.7667961883716 587.8621079488541 844.7667961883716 583.9961143488541 Z" stroke-miterlimit="10"/></g><g transform="translate(-430,-318) scale(1,1)"><path fill="none" stroke="#000000" d="M 851.5335923767431 590.9922286977081 L 852 577" stroke-miterlimit="10"/></g><g transform="translate(-430,-318) scale(1,1)"><path fill="none" stroke="#000000" d="M 858.7629105372257 584.2293181604825 L 844.7706818395175 583.7629105372257" stroke-miterlimit="10"/></g></g></svg>