<svg version="1.1" xmlns="http://www.w3.org/2000/svg" xmlns:xlink="http://www.w3.org/1999/xlink" width="473" height="154"><defs></defs><g><g transform="translate(4,-42) scale(1,1)"><rect fill="#C0C0C0" stroke="none" x="130" y="59" width="100" height="24" opacity="0.2"></rect></g><g transform="translate(4,-42) scale(1,1)"><rect fill="#ffffff" stroke="none" x="123" y="52" width="100" height="24"></rect></g><g transform="translate(4,-42) scale(1,1)"><path fill="none" stroke="#000000" d="M 123 52 L 223 52 L 223 76 L 123 76 L 123 52 Z Z" stroke-miterlimit="10"></path></g><g transform="translate(4,-42) scale(1,1)"><g><path fill="none" stroke="none"></path><text fill="#000000" stroke="none" font-family="Arial" font-size="13px" font-style="normal" font-weight="bold" text-decoration="none" x="129.5" y="71.5">GameCategory</text></g></g><g transform="translate(4,-42) scale(1,1)"><rect fill="#C0C0C0" stroke="none" x="318" y="59" width="45" height="24" opacity="0.2"></rect></g><g transform="translate(4,-42) scale(1,1)"><rect fill="#ffffff" stroke="none" x="311" y="52" width="45" height="24"></rect></g><g transform="translate(4,-42) scale(1,1)"><path fill="none" stroke="#000000" d="M 311 52 L 356 52 L 356 76 L 311 76 L 311 52 Z Z" stroke-miterlimit="10"></path></g><g transform="translate(4,-42) scale(1,1)"><g><path fill="none" stroke="none"></path><text fill="#000000" stroke="none" font-family="Arial" font-size="13px" font-style="normal" font-weight="bold" text-decoration="none" x="316" y="71.5">Game</text></g></g><g transform="translate(4,-42) scale(1,1)"><rect fill="#C0C0C0" stroke="none" x="294" y="161.5" width="93" height="24" opacity="0.2"></rect></g><g transform="translate(4,-42) scale(1,1)"><rect fill="#ffffff" stroke="none" x="287" y="154.5" width="93" height="24"></rect></g><g transform="translate(4,-42) scale(1,1)"><path fill="none" stroke="#000000" d="M 287 154.5 L 380 154.5 L 380 178.5 L 287 178.5 L 287 154.5 Z Z" stroke-miterlimit="10"></path></g><g transform="translate(4,-42) scale(1,1)"><g><path fill="none" stroke="none"></path><text fill="#000000" stroke="none" font-family="Arial" font-size="13px" font-style="normal" font-weight="bold" text-decoration="none" x="293.5" y="174">GameAdapter</text></g></g><g transform="translate(4,-42) scale(1,1)"><path fill="none" stroke="#000000" d="M 333 154 Q 334 132 333 77" stroke-miterlimit="10"></path></g><g transform="translate(4,-42) scale(1,1)"><path fill="none" stroke="#000000" d="M 337.3935675130194 87.08447145409916 L 333 77 L 328.97592323218123 87.23751953193258" stroke-miterlimit="10"></path></g><g transform="translate(4,-42) scale(1,1)"><g><path fill="none" stroke="none"></path><text fill="#000000" stroke="none" font-family="Arial" font-size="13px" font-style="normal" font-weight="normal" text-decoration="none" x="366.5" y="124.5">-games</text></g></g><g transform="translate(4,-42) scale(1,1)"><g><path fill="none" stroke="none"></path><text fill="#000000" stroke="none" font-family="Arial" font-size="13px" font-style="normal" font-weight="normal" text-decoration="none" x="357.5" y="108.5">{collection="List"}</text></g></g><g transform="translate(4,-42) scale(1,1)"><g><path fill="none" stroke="none"></path><text fill="#000000" stroke="none" font-family="Arial" font-size="13px" font-style="normal" font-weight="normal" text-decoration="none" x="342.5" y="91.5">*</text></g></g><g transform="translate(4,-42) scale(1,1)"><rect fill="#C0C0C0" stroke="none" x="154" y="154" width="52" height="39" opacity="0.2"></rect></g><g transform="translate(4,-42) scale(1,1)"><rect fill="#ffffff" stroke="none" x="147" y="147" width="52" height="39"></rect></g><g transform="translate(4,-42) scale(1,1)"><path fill="none" stroke="#000000" d="M 147 147 L 199 147 L 199 186 L 147 186 L 147 147 Z Z" stroke-miterlimit="10"></path></g><g transform="translate(4,-42) scale(1,1)"><g><path fill="none" stroke="none"></path><text fill="#000000" stroke="none" font-family="Arial" font-size="13px" font-style="normal" font-weight="bold" text-decoration="none" x="152" y="166.5">Games</text></g></g><g transform="translate(4,-42) scale(1,1)"><g><path fill="none" stroke="none"></path><text fill="#000000" stroke="none" font-family="Arial" font-size="13px" font-style="normal" font-weight="normal" text-decoration="none" x="165" y="181.5">{leaf}</text></g></g><g transform="translate(4,-42) scale(1,1)"><path fill="none" stroke="#000000" d="M 174 146 Q 175 132 173 77" stroke-miterlimit="10"></path></g><g transform="translate(4,-42) scale(1,1)"><path fill="none" stroke="#000000" d="M 177.57604508416674 87.0029901223421 L 173 77 L 169.1625703623795 87.30893465767981" stroke-miterlimit="10"></path></g><g transform="translate(4,-42) scale(1,1)"><g><path fill="none" stroke="none"></path><text fill="#000000" stroke="none" font-family="Arial" font-size="13px" font-style="normal" font-weight="normal" text-decoration="none" x="93.5" y="122.5">-categories</text></g></g><g transform="translate(4,-42) scale(1,1)"><g><path fill="none" stroke="none"></path><text fill="#000000" stroke="none" font-family="Arial" font-size="13px" font-style="normal" font-weight="normal" text-decoration="none" x="5.5" y="107.5">{readOnly, collection="List"}</text></g></g><g transform="translate(4,-42) scale(1,1)"><g><path fill="none" stroke="none"></path><text fill="#000000" stroke="none" font-family="Arial" font-size="13px" font-style="normal" font-weight="normal" text-decoration="none" x="183.5" y="104.5">*</text></g></g><g transform="translate(4,-42) scale(1,1)"><path fill="none" stroke="#000000" d="M 200 149 L 313 77" stroke-miterlimit="10"></path></g><g transform="translate(4,-42) scale(1,1)"><path fill="none" stroke="#000000" d="M 306.69128654212614 86.01111172422365 L 313 77 L 302.1672477271464 78.9108841396027" stroke-miterlimit="10"></path></g><g transform="translate(4,-42) scale(1,1)"><g><path fill="none" stroke="none"></path><text fill="#000000" stroke="none" font-family="Arial" font-size="13px" font-style="normal" font-weight="normal" text-decoration="none" x="298.5" y="105.5">*</text></g></g><g transform="translate(4,-42) scale(1,1)"><path fill="none" stroke="#000000" d="M 200 149 L 313 77" stroke-miterlimit="10"></path></g><g transform="translate(4,-42) scale(1,1)"><path fill="none" stroke="#000000" d="M 306.69128654212614 86.01111172422365 L 313 77 L 302.1672477271464 78.9108841396027" stroke-miterlimit="10"></path></g><g transform="translate(4,-42) scale(1,1)"><g><path fill="none" stroke="none"></path><text fill="#000000" stroke="none" font-family="Arial" font-size="13px" font-style="normal" font-weight="normal" text-decoration="none" x="246.5" y="68.5">{readOnly}</text></g></g><g transform="translate(4,-42) scale(1,1)"><g><path fill="none" stroke="none"></path><text fill="#000000" stroke="none" font-family="Arial" font-size="13px" font-style="normal" font-weight="normal" text-decoration="none" x="248.5" y="83.5">-games</text></g></g><g transform="translate(4,-42) scale(1,1)"><g><path fill="none" stroke="none"></path><text fill="#000000" stroke="none" font-family="Arial" font-size="13px" font-style="normal" font-weight="normal" text-decoration="none" x="298.5" y="105.5">*</text></g></g></g></svg>