<svg version="1.1" xmlns="http://www.w3.org/2000/svg" xmlns:xlink="http://www.w3.org/1999/xlink" width="323" height="108"><defs></defs><g><g transform="translate(-6,-6) scale(1,1)"><rect fill="#C0C0C0" stroke="none" x="23" y="87" width="100" height="24" opacity="0.2"></rect></g><g transform="translate(-6,-6) scale(1,1)"><rect fill="#ffffff" stroke="none" x="16" y="80" width="100" height="24"></rect></g><g transform="translate(-6,-6) scale(1,1)"><path fill="none" stroke="#000000" d="M 16 80 L 116 80 L 116 104 L 16 104 L 16 80 Z Z" stroke-miterlimit="10"></path></g><g transform="translate(-6,-6) scale(1,1)"><g><path fill="none" stroke="none"></path><text fill="#000000" stroke="none" font-family="Arial" font-size="13px" font-style="normal" font-weight="bold" text-decoration="none" x="22.5" y="99.5">GameCategory</text></g></g><g transform="translate(-6,-6) scale(1,1)"><rect fill="#C0C0C0" stroke="none" x="151" y="87" width="45" height="24" opacity="0.2"></rect></g><g transform="translate(-6,-6) scale(1,1)"><rect fill="#ffffff" stroke="none" x="144" y="80" width="45" height="24"></rect></g><g transform="translate(-6,-6) scale(1,1)"><path fill="none" stroke="#000000" d="M 144 80 L 189 80 L 189 104 L 144 104 L 144 80 Z Z" stroke-miterlimit="10"></path></g><g transform="translate(-6,-6) scale(1,1)"><g><path fill="none" stroke="none"></path><text fill="#000000" stroke="none" font-family="Arial" font-size="13px" font-style="normal" font-weight="bold" text-decoration="none" x="149" y="99.5">Game</text></g></g><g transform="translate(-6,-6) scale(1,1)"><rect fill="#C0C0C0" stroke="none" x="143" y="23" width="52" height="24" opacity="0.2"></rect></g><g transform="translate(-6,-6) scale(1,1)"><rect fill="#ffffff" stroke="none" x="136" y="16" width="52" height="24"></rect></g><g transform="translate(-6,-6) scale(1,1)"><path fill="none" stroke="#000000" d="M 136 16 L 188 16 L 188 40 L 136 40 L 136 16 Z Z" stroke-miterlimit="10"></path></g><g transform="translate(-6,-6) scale(1,1)"><g><path fill="none" stroke="none"></path><text fill="#000000" stroke="none" font-family="Arial" font-size="13px" font-style="normal" font-weight="bold" text-decoration="none" x="141" y="35.5">Games</text></g></g><g transform="translate(-6,-6) scale(1,1)"><rect fill="#C0C0C0" stroke="none" x="247" y="23" width="79" height="24" opacity="0.2"></rect></g><g transform="translate(-6,-6) scale(1,1)"><rect fill="#ffffff" stroke="none" x="240" y="16" width="79" height="24"></rect></g><g transform="translate(-6,-6) scale(1,1)"><path fill="none" stroke="#000000" d="M 240 16 L 319 16 L 319 40 L 240 40 L 240 16 Z Z" stroke-miterlimit="10"></path></g><g transform="translate(-6,-6) scale(1,1)"><g><path fill="none" stroke="none"></path><text fill="#000000" stroke="none" font-family="Arial" font-size="13px" font-style="normal" font-weight="bold" text-decoration="none" x="247.5" y="35.5">games.xml</text></g></g><g transform="translate(-6,-6) scale(1,1)"><path fill="none" stroke="#000000" d="M 189 28 L 239 28" stroke-miterlimit="10" stroke-dasharray="3"></path></g><g transform="translate(-6,-6) scale(1,1)"><path fill="none" stroke="#000000" d="M 228.83732514237585 32.20951775601599 L 239 28 L 228.83732514237585 23.790482243984012" stroke-miterlimit="10"></path></g><g transform="translate(-6,-6) scale(1,1)"><path fill="none" stroke="#000000" d="M 135 28 Q 88 28 70 79" stroke-miterlimit="10"></path></g><g transform="translate(-6,-6) scale(1,1)"><path fill="none" stroke="#000000" d="M 69.41280808964979 68.01568365074917 L 70 79 L 77.35187719558701 70.81770804107995" stroke-miterlimit="10"></path></g><g transform="translate(-6,-6) scale(1,1)"><path fill="none" stroke="#000000" d="M 163 41 L 165 79" stroke-miterlimit="10"></path></g><g transform="translate(-6,-6) scale(1,1)"><path fill="none" stroke="#000000" d="M 160.2621621840279 69.07261903473305 L 165 79 L 168.66956115212656 68.63012435220153" stroke-miterlimit="10"></path></g></g></svg>