<svg version="1.1" xmlns="http://www.w3.org/2000/svg" xmlns:xlink="http://www.w3.org/1999/xlink" width="323" height="108"><defs></defs><g><g transform="translate(-6,-6) scale(1,1)"><rect fill="#C0C0C0" stroke="none" x="23" y="87" width="100" height="24" opacity="0.2"></rect></g><g transform="translate(-6,-6) scale(1,1)"><rect fill="#ffffff" stroke="none" x="16" y="80" width="100" height="24"></rect></g><g transform="translate(-6,-6) scale(1,1)"><path fill="none" stroke="#000000" d="M 16 80 L 116 80 L 116 104 L 16 104 L 16 80 Z Z" stroke-miterlimit="10"></path></g><g transform="translate(-6,-6) scale(1,1)"><g><path fill="none" stroke="none"></path><text fill="#000000" stroke="none" font-family="Arial" font-size="13px" font-style="normal" font-weight="bold" text-decoration="none" x="22.5" y="99.5">GameCategory</text></g></g><g transform="translate(-6,-6) scale(1,1)"><rect fill="#C0C0C0" stroke="none" x="143" y="87" width="56" height="24" opacity="0.2"></rect></g><g transform="translate(-6,-6) scale(1,1)"><rect fill="#ffffff" stroke="none" x="136" y="80" width="56" height="24"></rect></g><g transform="translate(-6,-6) scale(1,1)"><path fill="none" stroke="#000000" d="M 136 80 L 192 80 L 192 104 L 136 104 L 136 80 Z Z" stroke-miterlimit="10"></path></g><g transform="translate(-6,-6) scale(1,1)"><g><path fill="none" stroke="none"></path><text fill="#000000" stroke="none" font-family="Arial" font-size="13px" font-style="normal" font-weight="bold" text-decoration="none" x="146.5" y="99.5">Game</text></g></g><g transform="translate(-6,-6) scale(1,1)"><rect fill="#C0C0C0" stroke="none" x="143" y="23" width="56" height="24" opacity="0.2"></rect></g><g transform="translate(-6,-6) scale(1,1)"><rect fill="#ffffff" stroke="none" x="136" y="16" width="56" height="24"></rect></g><g transform="translate(-6,-6) scale(1,1)"><path fill="none" stroke="#000000" d="M 136 16 L 192 16 L 192 40 L 136 40 L 136 16 Z Z" stroke-miterlimit="10"></path></g><g transform="translate(-6,-6) scale(1,1)"><g><path fill="none" stroke="none"></path><text fill="#000000" stroke="none" font-family="Arial" font-size="13px" font-style="normal" font-weight="bold" text-decoration="none" x="143" y="35.5">Games</text></g></g><g transform="translate(-6,-6) scale(1,1)"><rect fill="#C0C0C0" stroke="none" x="247" y="23" width="79" height="24" opacity="0.2"></rect></g><g transform="translate(-6,-6) scale(1,1)"><rect fill="#ffffff" stroke="none" x="240" y="16" width="79" height="24"></rect></g><g transform="translate(-6,-6) scale(1,1)"><path fill="none" stroke="#000000" d="M 240 16 L 319 16 L 319 40 L 240 40 L 240 16 Z Z" stroke-miterlimit="10"></path></g><g transform="translate(-6,-6) scale(1,1)"><g><path fill="none" stroke="none"></path><text fill="#000000" stroke="none" font-family="Arial" font-size="13px" font-style="normal" font-weight="bold" text-decoration="none" x="247.5" y="35.5">games.xml</text></g></g><g transform="translate(-6,-6) scale(1,1)"><path fill="none" stroke="#000000" d="M 192 28 L 240 28" stroke-miterlimit="10" stroke-dasharray="3"></path></g><g transform="translate(-6,-6) scale(1,1)"><path fill="none" stroke="#000000" d="M 229.83732514237585 32.20951775601599 L 240 28 L 229.83732514237585 23.790482243984012" stroke-miterlimit="10"></path></g><g transform="translate(-6,-6) scale(1,1)"><path fill="none" stroke="#000000" d="M 136 28 L 64 28 L 64 80" stroke-miterlimit="10"></path></g><g transform="translate(-6,-6) scale(1,1)"><path fill="none" stroke="#000000" d="M 59.790482243984016 69.83732514237585 L 64 80 L 68.20951775601598 69.83732514237585" stroke-miterlimit="10"></path></g><g transform="translate(-6,-6) scale(1,1)"><path fill="none" stroke="#000000" d="M 163 40 L 163 80" stroke-miterlimit="10"></path></g><g transform="translate(-6,-6) scale(1,1)"><path fill="none" stroke="#000000" d="M 158.790482243984 69.83732514237585 L 163 80 L 167.209517756016 69.83732514237585" stroke-miterlimit="10"></path></g></g></svg>