<svg version="1.1" xmlns="http://www.w3.org/2000/svg" xmlns:xlink="http://www.w3.org/1999/xlink" width="729.87353515625" height="372"><defs/><g><g transform="translate(-150,-278) scale(1,1)"><rect fill="#C0C0C0" stroke="none" x="399" y="447" width="240" height="80" opacity="0.2"/></g><g transform="translate(-150,-278) scale(1,1)"><rect fill="#ffffff" stroke="none" x="392" y="440" width="240" height="80"/></g><g transform="translate(-150,-278) scale(1,1)"><path fill="none" stroke="#000000" d="M 392 440 L 632 440 L 632 520 L 392 520 L 392 440 Z Z" stroke-miterlimit="10"/></g><g transform="translate(-150,-278) scale(1,1)"><path fill="none" stroke="#000000" d="M 392 465 L 632 465" stroke-miterlimit="10"/></g><g transform="translate(-150,-278) scale(1,1)"><path fill="none" stroke="#000000" d="M 392 488 L 632 488" stroke-miterlimit="10"/></g><g transform="translate(-150,-278) scale(1,1)"><g><path fill="none" stroke="none"/><text fill="#000000" stroke="none" font-family="Arial" font-size="13px" font-style="normal" font-weight="bold" text-decoration="none" x="458.1591796875" y="459.5">SavegameAdapter</text></g></g><g transform="translate(-150,-278) scale(1,1)"><g><path fill="none" stroke="none"/><text fill="#000000" stroke="none" font-family="Arial" font-size="13px" font-style="normal" font-weight="normal" text-decoration="none" x="397" y="482.5">+...</text></g></g><g transform="translate(-150,-278) scale(1,1)"><g><path fill="none" stroke="none"/><text fill="#000000" stroke="none" font-family="Arial" font-size="13px" font-style="normal" font-weight="normal" text-decoration="none" x="397" y="505.5">+...()</text></g></g><g transform="translate(-150,-278) scale(1,1)"><rect fill="#C0C0C0" stroke="none" x="287" y="567" width="223" height="80" opacity="0.2"/></g><g transform="translate(-150,-278) scale(1,1)"><rect fill="#ffffff" stroke="none" x="280" y="560" width="223" height="80"/></g><g transform="translate(-150,-278) scale(1,1)"><path fill="none" stroke="#000000" d="M 280 560 L 503 560 L 503 640 L 280 640 L 280 560 Z Z" stroke-miterlimit="10"/></g><g transform="translate(-150,-278) scale(1,1)"><path fill="none" stroke="#000000" d="M 280 585 L 503 585" stroke-miterlimit="10"/></g><g transform="translate(-150,-278) scale(1,1)"><path fill="none" stroke="#000000" d="M 280 608 L 503 608" stroke-miterlimit="10"/></g><g transform="translate(-150,-278) scale(1,1)"><g><path fill="none" stroke="none"/><text fill="#000000" stroke="none" font-family="Arial" font-size="13px" font-style="normal" font-weight="bold" text-decoration="none" x="327.188720703125" y="579.5">SavegameViewHolder</text></g></g><g transform="translate(-150,-278) scale(1,1)"><g><path fill="none" stroke="none"/><text fill="#000000" stroke="none" font-family="Arial" font-size="13px" font-style="normal" font-weight="normal" text-decoration="none" x="285" y="602.5">+...</text></g></g><g transform="translate(-150,-278) scale(1,1)"><g><path fill="none" stroke="none"/><text fill="#000000" stroke="none" font-family="Arial" font-size="13px" font-style="normal" font-weight="normal" text-decoration="none" x="285" y="625.5">+...()</text></g></g><g transform="translate(-150,-278) scale(1,1)"><path fill="none" stroke="#000000" d="M 392 559 L 392 544 L 488 544 L 497 521" stroke-miterlimit="10"/></g><g transform="translate(-150,-278) scale(1,1)"><path fill="#FFFFFF" stroke="none" d="M 487.4492045599364 527.5186994579403 C 487.4492045599364 523.6527058579403 490.58321095993637 520.5186994579403 494.4492045599364 520.5186994579403 C 498.3151981599364 520.5186994579403 501.4492045599364 523.6527058579403 501.4492045599364 527.5186994579403 C 501.4492045599364 531.3846930579404 498.3151981599364 534.5186994579403 494.4492045599364 534.5186994579403 C 490.58321095993637 534.5186994579403 487.4492045599364 531.3846930579404 487.4492045599364 527.5186994579403 Z"/></g><g transform="translate(-150,-278) scale(1,1)"><path fill="none" stroke="#000000" d="M 487.4492045599364 527.5186994579403 C 487.4492045599364 523.6527058579403 490.58321095993637 520.5186994579403 494.4492045599364 520.5186994579403 C 498.3151981599364 520.5186994579403 501.4492045599364 523.6527058579403 501.4492045599364 527.5186994579403 C 501.4492045599364 531.3846930579404 498.3151981599364 534.5186994579403 494.4492045599364 534.5186994579403 C 490.58321095993637 534.5186994579403 487.4492045599364 531.3846930579404 487.4492045599364 527.5186994579403 Z" stroke-miterlimit="10"/></g><g transform="translate(-150,-278) scale(1,1)"><path fill="none" stroke="#000000" d="M 491.89840911987284 534.0373989158805 L 497 521" stroke-miterlimit="10"/></g><g transform="translate(-150,-278) scale(1,1)"><path fill="none" stroke="#000000" d="M 500.96790401787666 530.0694948980039 L 487.9305051019961 524.9679040178768" stroke-miterlimit="10"/></g><g transform="translate(-150,-278) scale(1,1)"><rect fill="#C0C0C0" stroke="none" x="527" y="567" width="224" height="80" opacity="0.2"/></g><g transform="translate(-150,-278) scale(1,1)"><rect fill="#ffffff" stroke="none" x="520" y="560" width="224" height="80"/></g><g transform="translate(-150,-278) scale(1,1)"><path fill="none" stroke="#000000" d="M 520 560 L 744 560 L 744 640 L 520 640 L 520 560 Z Z" stroke-miterlimit="10"/></g><g transform="translate(-150,-278) scale(1,1)"><path fill="none" stroke="#000000" d="M 520 585 L 744 585" stroke-miterlimit="10"/></g><g transform="translate(-150,-278) scale(1,1)"><path fill="none" stroke="#000000" d="M 520 608 L 744 608" stroke-miterlimit="10"/></g><g transform="translate(-150,-278) scale(1,1)"><g><path fill="none" stroke="none"/><text fill="#000000" stroke="none" font-family="Arial" font-size="13px" font-style="normal" font-weight="bold" text-decoration="none" x="553.23193359375" y="579.5">SavegameAdapterCallback</text></g></g><g transform="translate(-150,-278) scale(1,1)"><g><path fill="none" stroke="none"/><text fill="#000000" stroke="none" font-family="Arial" font-size="13px" font-style="normal" font-weight="normal" text-decoration="none" x="525" y="602.5">+...</text></g></g><g transform="translate(-150,-278) scale(1,1)"><g><path fill="none" stroke="none"/><text fill="#000000" stroke="none" font-family="Arial" font-size="13px" font-style="normal" font-weight="normal" text-decoration="none" x="525" y="625.5">+...()</text></g></g><g transform="translate(-150,-278) scale(1,1)"><path fill="none" stroke="#000000" d="M 632 559 L 632 544 L 536 544 L 527 521" stroke-miterlimit="10"/></g><g transform="translate(-150,-278) scale(1,1)"><path fill="#FFFFFF" stroke="none" d="M 522.5507954400636 527.5186994579403 C 522.5507954400636 523.6527058579403 525.6848018400635 520.5186994579403 529.5507954400636 520.5186994579403 C 533.4167890400636 520.5186994579403 536.5507954400636 523.6527058579403 536.5507954400636 527.5186994579403 C 536.5507954400636 531.3846930579404 533.4167890400636 534.5186994579403 529.5507954400636 534.5186994579403 C 525.6848018400635 534.5186994579403 522.5507954400636 531.3846930579404 522.5507954400636 527.5186994579403 Z"/></g><g transform="translate(-150,-278) scale(1,1)"><path fill="none" stroke="#000000" d="M 522.5507954400636 527.5186994579403 C 522.5507954400636 523.6527058579403 525.6848018400635 520.5186994579403 529.5507954400636 520.5186994579403 C 533.4167890400636 520.5186994579403 536.5507954400636 523.6527058579403 536.5507954400636 527.5186994579403 C 536.5507954400636 531.3846930579404 533.4167890400636 534.5186994579403 529.5507954400636 534.5186994579403 C 525.6848018400635 534.5186994579403 522.5507954400636 531.3846930579404 522.5507954400636 527.5186994579403 Z" stroke-miterlimit="10"/></g><g transform="translate(-150,-278) scale(1,1)"><path fill="none" stroke="#000000" d="M 532.1015908801272 534.0373989158805 L 527 521" stroke-miterlimit="10"/></g><g transform="translate(-150,-278) scale(1,1)"><path fill="none" stroke="#000000" d="M 536.0694948980039 524.9679040178768 L 523.0320959821232 530.0694948980039" stroke-miterlimit="10"/></g><g transform="translate(-150,-278) scale(1,1)"><rect fill="#C0C0C0" stroke="none" x="375" y="329" width="276.916015625" height="70" opacity="0.2"/></g><g transform="translate(-150,-278) scale(1,1)"><rect fill="#C0C0C0" stroke="none" x="412" y="311" width="248.916015625" height="22" opacity="0.2"/></g><g transform="translate(-150,-278) scale(1,1)"><rect fill="#ffffff" stroke="none" x="368" y="322" width="276.916015625" height="70"/></g><g transform="translate(-150,-278) scale(1,1)"><path fill="none" stroke="#000000" d="M 368 322 L 644.916015625 322 L 644.916015625 392 L 368 392 L 368 322 Z Z" stroke-miterlimit="10"/></g><g transform="translate(-150,-278) scale(1,1)"><path fill="none" stroke="#000000" d="M 368 347 L 644.916015625 347" stroke-miterlimit="10"/></g><g transform="translate(-150,-278) scale(1,1)"><path fill="none" stroke="#000000" d="M 368 370 L 644.916015625 370" stroke-miterlimit="10"/></g><g transform="translate(-150,-278) scale(1,1)"><g><path fill="none" stroke="none"/><text fill="#000000" stroke="none" font-family="Arial" font-size="13px" font-style="normal" font-weight="bold" text-decoration="none" x="442.514892578125" y="341.5">RecyclerView.Adapter</text></g></g><g transform="translate(-150,-278) scale(1,1)"><g><path fill="none" stroke="none"/><text fill="#000000" stroke="none" font-family="Arial" font-size="13px" font-style="normal" font-weight="normal" text-decoration="none" x="373" y="364.5">+...</text></g></g><g transform="translate(-150,-278) scale(1,1)"><g><path fill="none" stroke="none"/><text fill="#000000" stroke="none" font-family="Arial" font-size="13px" font-style="normal" font-weight="normal" text-decoration="none" x="373" y="387.5">+...()</text></g></g><g transform="translate(-150,-278) scale(1,1)"><rect fill="#ffffff" stroke="none" x="405" y="304" width="248.916015625" height="22"/></g><g transform="translate(-150,-278) scale(1,1)"><path fill="none" stroke="#000000" d="M 405 304 L 653.916015625 304 L 653.916015625 326 L 405 326 L 405 304 Z Z" stroke-miterlimit="10" stroke-dasharray="3"/></g><g transform="translate(-150,-278) scale(1,1)"><g><path fill="none" stroke="none"/><text fill="#000000" stroke="none" font-family="Arial" font-size="13px" font-style="normal" font-weight="normal" text-decoration="none" x="410" y="321.5">SavegameAdapter.SavegameViewHolder</text></g></g><g transform="translate(-150,-278) scale(1,1)"><path fill="none" stroke="#000000" d="M 512 439 L 511 393" stroke-miterlimit="10"/></g><g transform="translate(-150,-278) scale(1,1)"><path fill="#FFFFFF" stroke="none" d="M 519.8587978991541 413.1375693613192 L 511 393 L 503.0247042156497 413.5035279196563"/></g><g transform="translate(-150,-278) scale(1,1)"><path fill="none" stroke="#000000" d="M 519.8587978991541 413.1375693613192 L 511 393 L 503.0247042156497 413.5035279196563 L 519.8587978991541 413.1375693613192" stroke-miterlimit="10"/></g><g transform="translate(-150,-278) scale(1,1)"><rect fill="#C0C0C0" stroke="none" x="671" y="433" width="195.87353515625" height="78" opacity="0.2"/></g><g transform="translate(-150,-278) scale(1,1)"><rect fill="#C0C0C0" stroke="none" x="804.7236328125" y="415" width="71.14990234375" height="22" opacity="0.2"/></g><g transform="translate(-150,-278) scale(1,1)"><rect fill="#ffffff" stroke="none" x="664" y="426" width="195.87353515625" height="78"/></g><g transform="translate(-150,-278) scale(1,1)"><path fill="none" stroke="#000000" d="M 664 426 L 859.87353515625 426 L 859.87353515625 504 L 664 504 L 664 426 Z Z" stroke-miterlimit="10"/></g><g transform="translate(-150,-278) scale(1,1)"><path fill="none" stroke="#000000" d="M 664 451 L 859.87353515625 451" stroke-miterlimit="10"/></g><g transform="translate(-150,-278) scale(1,1)"><path fill="none" stroke="#000000" d="M 664 474 L 859.87353515625 474" stroke-miterlimit="10"/></g><g transform="translate(-150,-278) scale(1,1)"><g><path fill="none" stroke="none"/><text fill="#000000" stroke="none" font-family="Arial" font-size="13px" font-style="normal" font-weight="bold" text-decoration="none" x="684.977783203125" y="445.5">SortedListAdapterCallback</text></g></g><g transform="translate(-150,-278) scale(1,1)"><g><path fill="none" stroke="none"/><text fill="#000000" stroke="none" font-family="Arial" font-size="13px" font-style="normal" font-weight="normal" text-decoration="none" x="669" y="468.5">+...</text></g></g><g transform="translate(-150,-278) scale(1,1)"><g><path fill="none" stroke="none"/><text fill="#000000" stroke="none" font-family="Arial" font-size="13px" font-style="normal" font-weight="normal" text-decoration="none" x="669" y="491.5">+...()</text></g></g><g transform="translate(-150,-278) scale(1,1)"><rect fill="#ffffff" stroke="none" x="797.7236328125" y="408" width="71.14990234375" height="22"/></g><g transform="translate(-150,-278) scale(1,1)"><path fill="none" stroke="#000000" d="M 797.7236328125 408 L 868.87353515625 408 L 868.87353515625 430 L 797.7236328125 430 L 797.7236328125 408 Z Z" stroke-miterlimit="10" stroke-dasharray="3"/></g><g transform="translate(-150,-278) scale(1,1)"><g><path fill="none" stroke="none"/><text fill="#000000" stroke="none" font-family="Arial" font-size="13px" font-style="normal" font-weight="normal" text-decoration="none" x="802.7236328125" y="425.5">Savegame</text></g></g><g transform="translate(-150,-278) scale(1,1)"><path fill="none" stroke="#000000" d="M 632 559 L 632 544 L 768 544 L 767 505" stroke-miterlimit="10"/></g><g transform="translate(-150,-278) scale(1,1)"><path fill="#FFFFFF" stroke="none" d="M 775.9372608524106 525.1028696572397 L 767 505 L 759.1047222980292 525.5344732099161"/></g><g transform="translate(-150,-278) scale(1,1)"><path fill="none" stroke="#000000" d="M 775.9372608524106 525.1028696572397 L 767 505 L 759.1047222980292 525.5344732099161 L 775.9372608524106 525.1028696572397" stroke-miterlimit="10"/></g><g transform="translate(-150,-278) scale(1,1)"><rect fill="#C0C0C0" stroke="none" x="167" y="431" width="192" height="80" opacity="0.2"/></g><g transform="translate(-150,-278) scale(1,1)"><rect fill="#ffffff" stroke="none" x="160" y="424" width="192" height="80"/></g><g transform="translate(-150,-278) scale(1,1)"><path fill="none" stroke="#000000" d="M 160 424 L 352 424 L 352 504 L 160 504 L 160 424 Z Z" stroke-miterlimit="10"/></g><g transform="translate(-150,-278) scale(1,1)"><path fill="none" stroke="#000000" d="M 160 449 L 352 449" stroke-miterlimit="10"/></g><g transform="translate(-150,-278) scale(1,1)"><path fill="none" stroke="#000000" d="M 160 472 L 352 472" stroke-miterlimit="10"/></g><g transform="translate(-150,-278) scale(1,1)"><g><path fill="none" stroke="none"/><text fill="#000000" stroke="none" font-family="Arial" font-size="13px" font-style="normal" font-weight="bold" text-decoration="none" x="181.58642578125" y="443.5">RecyclerView.ViewHolder</text></g></g><g transform="translate(-150,-278) scale(1,1)"><g><path fill="none" stroke="none"/><text fill="#000000" stroke="none" font-family="Arial" font-size="13px" font-style="normal" font-weight="normal" text-decoration="none" x="165" y="466.5">+...</text></g></g><g transform="translate(-150,-278) scale(1,1)"><g><path fill="none" stroke="none"/><text fill="#000000" stroke="none" font-family="Arial" font-size="13px" font-style="normal" font-weight="normal" text-decoration="none" x="165" y="489.5">+...()</text></g></g><g transform="translate(-150,-278) scale(1,1)"><path fill="none" stroke="#000000" d="M 392 559 L 392 544 L 256 544 L 256 505" stroke-miterlimit="10"/></g><g transform="translate(-150,-278) scale(1,1)"><path fill="#FFFFFF" stroke="none" d="M 264.419035512032 525.3253497152483 L 256 505 L 247.58096448796803 525.3253497152483"/></g><g transform="translate(-150,-278) scale(1,1)"><path fill="none" stroke="#000000" d="M 264.419035512032 525.3253497152483 L 256 505 L 247.58096448796803 525.3253497152483 L 264.419035512032 525.3253497152483" stroke-miterlimit="10"/></g><g transform="translate(-150,-278) scale(1,1)"><rect fill="#C0C0C0" stroke="none" x="167" y="295" width="192" height="83" opacity="0.2"/></g><g transform="translate(-150,-278) scale(1,1)"><rect fill="#ffffff" stroke="none" x="160" y="288" width="192" height="83"/></g><g transform="translate(-150,-278) scale(1,1)"><path fill="none" stroke="#000000" d="M 160 288 L 352 288 L 352 371 L 160 371 L 160 288 Z Z" stroke-miterlimit="10"/></g><g transform="translate(-150,-278) scale(1,1)"><path fill="none" stroke="#000000" d="M 160 326 L 352 326" stroke-miterlimit="10"/></g><g transform="translate(-150,-278) scale(1,1)"><path fill="none" stroke="#000000" d="M 160 349 L 352 349" stroke-miterlimit="10"/></g><g transform="translate(-150,-278) scale(1,1)"><g><path fill="none" stroke="none"/><text fill="#000000" stroke="none" font-family="Arial" font-size="13px" font-style="normal" font-weight="normal" text-decoration="none" x="223.839599609375" y="305.5">«interface»</text></g></g><g transform="translate(-150,-278) scale(1,1)"><g><path fill="none" stroke="none"/><text fill="#000000" stroke="none" font-family="Arial" font-size="13px" font-style="normal" font-weight="bold" text-decoration="none" x="194.227783203125" y="320.5">View.OnClickListener</text></g></g><g transform="translate(-150,-278) scale(1,1)"><g><path fill="none" stroke="none"/><text fill="#000000" stroke="none" font-family="Arial" font-size="13px" font-style="normal" font-weight="normal" text-decoration="none" x="165" y="343.5">+...</text></g></g><g transform="translate(-150,-278) scale(1,1)"><g><path fill="none" stroke="none"/><text fill="#000000" stroke="none" font-family="Arial" font-size="13px" font-style="normal" font-weight="normal" text-decoration="none" x="165" y="366.5">+...()</text></g></g><g transform="translate(-150,-278) scale(1,1)"><path fill="none" stroke="#000000" d="M 392 559 L 392 528 L 368 528 L 368 400 L 256 400 L 256 372" stroke-miterlimit="10"/></g><g transform="translate(-150,-278) scale(1,1)"><path fill="#FFFFFF" stroke="none" d="M 264.419035512032 392.3253497152483 L 256 372 L 247.58096448796803 392.3253497152483"/></g><g transform="translate(-150,-278) scale(1,1)"><path fill="none" stroke="#000000" d="M 264.419035512032 392.3253497152483 L 256 372 L 247.58096448796803 392.3253497152483 L 264.419035512032 392.3253497152483" stroke-miterlimit="10"/></g></g></svg>