<svg version="1.1" xmlns="http://www.w3.org/2000/svg" xmlns:xlink="http://www.w3.org/1999/xlink" width="820" height="628"><defs/><g><g transform="translate(-294,-110) scale(1,1)"><rect fill="#C0C0C0" stroke="none" x="311" y="127" width="320" height="15" opacity="0.2"/></g><g transform="translate(-294,-110) scale(1,1)"><rect fill="#C0C0C0" stroke="none" x="311" y="141" width="800" height="594" opacity="0.2"/></g><g transform="translate(-294,-110) scale(1,1)"><rect fill="#ffffff" stroke="none" x="304" y="135" width="800" height="593"/></g><g transform="translate(-294,-110) scale(1,1)"><path fill="none" stroke="#000000" d="M 304 135 L 1104 135 L 1104 728 L 304 728 L 304 135 Z Z" stroke-miterlimit="10"/></g><g transform="translate(-294,-110) scale(1,1)"><rect fill="#ffffff" stroke="none" x="304" y="120" width="320" height="15"/></g><g transform="translate(-294,-110) scale(1,1)"><path fill="none" stroke="#000000" d="M 304 120 L 624 120 L 624 135 L 304 135 L 304 120 Z Z" stroke-miterlimit="10"/></g><g transform="translate(-294,-110) scale(1,1)"><rect fill="#ffffff" stroke="none" x="304" y="134" width="800" height="594"/></g><g transform="translate(-294,-110) scale(1,1)"><path fill="none" stroke="#000000" d="M 304 134 L 1104 134 L 1104 728 L 304 728 L 304 134 Z Z" stroke-miterlimit="10"/></g><g transform="translate(-294,-110) scale(1,1)"><g><path fill="none" stroke="none"/><text fill="#000000" stroke="none" font-family="Arial" font-size="13px" font-style="normal" font-weight="bold" text-decoration="none" x="660.642333984375" y="154.5">gamecollection</text></g></g><g transform="translate(-294,-110) scale(1,1)"><rect fill="#C0C0C0" stroke="none" x="367" y="471" width="275.20000000000005" height="15" opacity="0.2"/></g><g transform="translate(-294,-110) scale(1,1)"><rect fill="#C0C0C0" stroke="none" x="367" y="485" width="688" height="226" opacity="0.2"/></g><g transform="translate(-294,-110) scale(1,1)"><rect fill="#ffffff" stroke="none" x="360" y="479" width="688" height="225"/></g><g transform="translate(-294,-110) scale(1,1)"><path fill="none" stroke="#000000" d="M 360 479 L 1048 479 L 1048 704 L 360 704 L 360 479 Z Z" stroke-miterlimit="10"/></g><g transform="translate(-294,-110) scale(1,1)"><rect fill="#ffffff" stroke="none" x="360" y="464" width="275.20000000000005" height="15"/></g><g transform="translate(-294,-110) scale(1,1)"><path fill="none" stroke="#000000" d="M 360 464 L 635.2 464 L 635.2 479 L 360 479 L 360 464 Z Z" stroke-miterlimit="10"/></g><g transform="translate(-294,-110) scale(1,1)"><rect fill="#ffffff" stroke="none" x="360" y="478" width="688" height="226"/></g><g transform="translate(-294,-110) scale(1,1)"><path fill="none" stroke="#000000" d="M 360 478 L 1048 478 L 1048 704 L 360 704 L 360 478 Z Z" stroke-miterlimit="10"/></g><g transform="translate(-294,-110) scale(1,1)"><g><path fill="none" stroke="none"/><text fill="#000000" stroke="none" font-family="Arial" font-size="13px" font-style="normal" font-weight="bold" text-decoration="none" x="690.996826171875" y="498.5">view</text></g></g><g transform="translate(-294,-110) scale(1,1)"><rect fill="#C0C0C0" stroke="none" x="367" y="167" width="274.79999999999995" height="15" opacity="0.2"/></g><g transform="translate(-294,-110) scale(1,1)"><rect fill="#C0C0C0" stroke="none" x="367" y="181" width="687" height="249" opacity="0.2"/></g><g transform="translate(-294,-110) scale(1,1)"><rect fill="#ffffff" stroke="none" x="360" y="175" width="687" height="248"/></g><g transform="translate(-294,-110) scale(1,1)"><path fill="none" stroke="#000000" d="M 360 175 L 1047 175 L 1047 423 L 360 423 L 360 175 Z Z" stroke-miterlimit="10"/></g><g transform="translate(-294,-110) scale(1,1)"><rect fill="#ffffff" stroke="none" x="360" y="160" width="274.79999999999995" height="15"/></g><g transform="translate(-294,-110) scale(1,1)"><path fill="none" stroke="#000000" d="M 360 160 L 634.8 160 L 634.8 175 L 360 175 L 360 160 Z Z" stroke-miterlimit="10"/></g><g transform="translate(-294,-110) scale(1,1)"><rect fill="#ffffff" stroke="none" x="360" y="174" width="687" height="249"/></g><g transform="translate(-294,-110) scale(1,1)"><path fill="none" stroke="#000000" d="M 360 174 L 1047 174 L 1047 423 L 360 423 L 360 174 Z Z" stroke-miterlimit="10"/></g><g transform="translate(-294,-110) scale(1,1)"><g><path fill="none" stroke="none"/><text fill="#000000" stroke="none" font-family="Arial" font-size="13px" font-style="normal" font-weight="bold" text-decoration="none" x="685.79638671875" y="194.5">model</text></g></g><g transform="translate(-294,-110) scale(1,1)"><rect fill="#C0C0C0" stroke="none" x="407" y="199" width="243.20000000000005" height="15" opacity="0.2"/></g><g transform="translate(-294,-110) scale(1,1)"><rect fill="#C0C0C0" stroke="none" x="407" y="213" width="608" height="202" opacity="0.2"/></g><g transform="translate(-294,-110) scale(1,1)"><rect fill="#ffffff" stroke="none" x="400" y="207" width="608" height="201"/></g><g transform="translate(-294,-110) scale(1,1)"><path fill="none" stroke="#000000" d="M 400 207 L 1008 207 L 1008 408 L 400 408 L 400 207 Z Z" stroke-miterlimit="10"/></g><g transform="translate(-294,-110) scale(1,1)"><rect fill="#ffffff" stroke="none" x="400" y="192" width="243.20000000000005" height="15"/></g><g transform="translate(-294,-110) scale(1,1)"><path fill="none" stroke="#000000" d="M 400 192 L 643.2 192 L 643.2 207 L 400 207 L 400 192 Z Z" stroke-miterlimit="10"/></g><g transform="translate(-294,-110) scale(1,1)"><rect fill="#ffffff" stroke="none" x="400" y="206" width="608" height="202"/></g><g transform="translate(-294,-110) scale(1,1)"><path fill="none" stroke="#000000" d="M 400 206 L 1008 206 L 1008 408 L 400 408 L 400 206 Z Z" stroke-miterlimit="10"/></g><g transform="translate(-294,-110) scale(1,1)"><g><path fill="none" stroke="none"/><text fill="#000000" stroke="none" font-family="Arial" font-size="13px" font-style="normal" font-weight="bold" text-decoration="none" x="652.330078125" y="226.5">savegamestorage</text></g></g><g transform="translate(-294,-110) scale(1,1)"><rect fill="#C0C0C0" stroke="none" x="431" y="279" width="144" height="85" opacity="0.2"/></g><g transform="translate(-294,-110) scale(1,1)"><rect fill="#ffffff" stroke="none" x="424" y="272" width="144" height="85"/></g><g transform="translate(-294,-110) scale(1,1)"><path fill="none" stroke="#000000" d="M 424 272 L 568 272 L 568 357 L 424 357 L 424 272 Z Z" stroke-miterlimit="10"/></g><g transform="translate(-294,-110) scale(1,1)"><path fill="none" stroke="#000000" d="M 424 297 L 568 297" stroke-miterlimit="10"/></g><g transform="translate(-294,-110) scale(1,1)"><path fill="none" stroke="#000000" d="M 424 320 L 568 320" stroke-miterlimit="10"/></g><g transform="translate(-294,-110) scale(1,1)"><g><path fill="none" stroke="none"/><text fill="#000000" stroke="none" font-family="Arial" font-size="13px" font-style="normal" font-weight="bold" text-decoration="none" x="443.24462890625" y="291.5">Savegamestorage</text></g></g><g transform="translate(-294,-110) scale(1,1)"><g><path fill="none" stroke="none"/><text fill="#000000" stroke="none" font-family="Arial" font-size="13px" font-style="normal" font-weight="normal" text-decoration="none" x="429" y="314.5">+...</text></g></g><g transform="translate(-294,-110) scale(1,1)"><g><path fill="none" stroke="none"/><text fill="#000000" stroke="none" font-family="Arial" font-size="13px" font-style="normal" font-weight="normal" text-decoration="none" x="429" y="337.5">+getInstance()</text><path fill="none" stroke="#000000" d="M 429 337.5 L 512.46533203125 337.5" stroke-miterlimit="10"/></g></g><g transform="translate(-294,-110) scale(1,1)"><g><path fill="none" stroke="none"/><text fill="#000000" stroke="none" font-family="Arial" font-size="13px" font-style="normal" font-weight="normal" text-decoration="none" x="429" y="352.5">+...()</text></g></g><g transform="translate(-294,-110) scale(1,1)"><rect fill="#C0C0C0" stroke="none" x="607" y="279" width="112" height="85" opacity="0.2"/></g><g transform="translate(-294,-110) scale(1,1)"><rect fill="#ffffff" stroke="none" x="600" y="272" width="112" height="85"/></g><g transform="translate(-294,-110) scale(1,1)"><path fill="none" stroke="#000000" d="M 600 272 L 712 272 L 712 357 L 600 357 L 600 272 Z Z" stroke-miterlimit="10"/></g><g transform="translate(-294,-110) scale(1,1)"><path fill="none" stroke="#000000" d="M 600 297 L 712 297" stroke-miterlimit="10"/></g><g transform="translate(-294,-110) scale(1,1)"><path fill="none" stroke="#000000" d="M 600 320 L 712 320" stroke-miterlimit="10"/></g><g transform="translate(-294,-110) scale(1,1)"><g><path fill="none" stroke="none"/><text fill="#000000" stroke="none" font-family="Arial" font-size="13px" font-style="normal" font-weight="bold" text-decoration="none" x="624.925048828125" y="291.5">Savegame</text></g></g><g transform="translate(-294,-110) scale(1,1)"><g><path fill="none" stroke="none"/><text fill="#000000" stroke="none" font-family="Arial" font-size="13px" font-style="normal" font-weight="normal" text-decoration="none" x="605" y="314.5">+...</text></g></g><g transform="translate(-294,-110) scale(1,1)"><g><path fill="none" stroke="none"/><text fill="#000000" stroke="none" font-family="Arial" font-size="13px" font-style="normal" font-weight="normal" text-decoration="none" x="605" y="337.5">+Savegame()</text></g></g><g transform="translate(-294,-110) scale(1,1)"><g><path fill="none" stroke="none"/><text fill="#000000" stroke="none" font-family="Arial" font-size="13px" font-style="normal" font-weight="normal" text-decoration="none" x="605" y="352.5">+...()</text></g></g><g transform="translate(-294,-110) scale(1,1)"><rect fill="#C0C0C0" stroke="none" x="743" y="279" width="254.39599609375" height="112" opacity="0.2"/></g><g transform="translate(-294,-110) scale(1,1)"><rect fill="#ffffff" stroke="none" x="736" y="272" width="254.39599609375" height="112"/></g><g transform="translate(-294,-110) scale(1,1)"><path fill="none" stroke="#000000" d="M 736 272 L 990.39599609375 272 L 990.39599609375 384 L 736 384 L 736 272 Z Z" stroke-miterlimit="10"/></g><g transform="translate(-294,-110) scale(1,1)"><path fill="none" stroke="#000000" d="M 736 297 L 990.39599609375 297" stroke-miterlimit="10"/></g><g transform="translate(-294,-110) scale(1,1)"><path fill="none" stroke="#000000" d="M 736 335 L 990.39599609375 335" stroke-miterlimit="10"/></g><g transform="translate(-294,-110) scale(1,1)"><g><path fill="none" stroke="none"/><text fill="#000000" stroke="none" font-family="Arial" font-size="13px" font-style="normal" font-weight="bold" text-decoration="none" x="809.357177734375" y="291.5">SavegameAdapter</text></g></g><g transform="translate(-294,-110) scale(1,1)"><g><path fill="none" stroke="none"/><text fill="#000000" stroke="none" font-family="Arial" font-size="13px" font-style="normal" font-weight="normal" text-decoration="none" x="741" y="314.5">«SortedList&lt;Savegame&gt;»+mSavegames</text></g></g><g transform="translate(-294,-110) scale(1,1)"><g><path fill="none" stroke="none"/><text fill="#000000" stroke="none" font-family="Arial" font-size="13px" font-style="normal" font-weight="normal" text-decoration="none" x="741" y="329.5">+...</text></g></g><g transform="translate(-294,-110) scale(1,1)"><g><path fill="none" stroke="none"/><text fill="#000000" stroke="none" font-family="Arial" font-size="13px" font-style="normal" font-weight="normal" text-decoration="none" x="741" y="352.5">+SavegameAdapter()</text></g></g><g transform="translate(-294,-110) scale(1,1)"><g><path fill="none" stroke="none"/><text fill="#000000" stroke="none" font-family="Arial" font-size="13px" font-style="normal" font-weight="normal" text-decoration="none" x="741" y="367.5">+...()</text></g></g><g transform="translate(-294,-110) scale(1,1)"><rect fill="#C0C0C0" stroke="none" x="767" y="503" width="99.20000000000005" height="15" opacity="0.2"/></g><g transform="translate(-294,-110) scale(1,1)"><rect fill="#C0C0C0" stroke="none" x="767" y="517" width="248" height="178" opacity="0.2"/></g><g transform="translate(-294,-110) scale(1,1)"><rect fill="#ffffff" stroke="none" x="760" y="511" width="248" height="177"/></g><g transform="translate(-294,-110) scale(1,1)"><path fill="none" stroke="#000000" d="M 760 511 L 1008 511 L 1008 688 L 760 688 L 760 511 Z Z" stroke-miterlimit="10"/></g><g transform="translate(-294,-110) scale(1,1)"><rect fill="#ffffff" stroke="none" x="760" y="496" width="99.20000000000005" height="15"/></g><g transform="translate(-294,-110) scale(1,1)"><path fill="none" stroke="#000000" d="M 760 496 L 859.2 496 L 859.2 511 L 760 511 L 760 496 Z Z" stroke-miterlimit="10"/></g><g transform="translate(-294,-110) scale(1,1)"><rect fill="#ffffff" stroke="none" x="760" y="510" width="248" height="178"/></g><g transform="translate(-294,-110) scale(1,1)"><path fill="none" stroke="#000000" d="M 760 510 L 1008 510 L 1008 688 L 760 688 L 760 510 Z Z" stroke-miterlimit="10"/></g><g transform="translate(-294,-110) scale(1,1)"><g><path fill="none" stroke="none"/><text fill="#000000" stroke="none" font-family="Arial" font-size="13px" font-style="normal" font-weight="bold" text-decoration="none" x="858.34912109375" y="530.5">fragment</text></g></g><g transform="translate(-294,-110) scale(1,1)"><rect fill="#C0C0C0" stroke="none" x="799" y="551" width="184" height="128" opacity="0.2"/></g><g transform="translate(-294,-110) scale(1,1)"><rect fill="#ffffff" stroke="none" x="792" y="544" width="184" height="128"/></g><g transform="translate(-294,-110) scale(1,1)"><path fill="none" stroke="#000000" d="M 792 544 L 976 544 L 976 672 L 792 672 L 792 544 Z Z" stroke-miterlimit="10"/></g><g transform="translate(-294,-110) scale(1,1)"><path fill="none" stroke="#000000" d="M 792 569 L 976 569" stroke-miterlimit="10"/></g><g transform="translate(-294,-110) scale(1,1)"><path fill="none" stroke="#000000" d="M 792 592 L 976 592" stroke-miterlimit="10"/></g><g transform="translate(-294,-110) scale(1,1)"><g><path fill="none" stroke="none"/><text fill="#000000" stroke="none" font-family="Arial" font-size="13px" font-style="normal" font-weight="bold" text-decoration="none" x="872.075927734375" y="563.5">Hub</text></g></g><g transform="translate(-294,-110) scale(1,1)"><g><path fill="none" stroke="none"/><text fill="#000000" stroke="none" font-family="Arial" font-size="13px" font-style="normal" font-weight="normal" text-decoration="none" x="797" y="586.5">+...</text></g></g><g transform="translate(-294,-110) scale(1,1)"><g><path fill="none" stroke="none"/><text fill="#000000" stroke="none" font-family="Arial" font-size="13px" font-style="normal" font-weight="normal" text-decoration="none" x="797" y="609.5">+...()</text></g></g><g transform="translate(-294,-110) scale(1,1)"><rect fill="#C0C0C0" stroke="none" x="407" y="503" width="102.39999999999998" height="15" opacity="0.2"/></g><g transform="translate(-294,-110) scale(1,1)"><rect fill="#C0C0C0" stroke="none" x="407" y="517" width="256" height="178" opacity="0.2"/></g><g transform="translate(-294,-110) scale(1,1)"><rect fill="#ffffff" stroke="none" x="400" y="511" width="256" height="177"/></g><g transform="translate(-294,-110) scale(1,1)"><path fill="none" stroke="#000000" d="M 400 511 L 656 511 L 656 688 L 400 688 L 400 511 Z Z" stroke-miterlimit="10"/></g><g transform="translate(-294,-110) scale(1,1)"><rect fill="#ffffff" stroke="none" x="400" y="496" width="102.39999999999998" height="15"/></g><g transform="translate(-294,-110) scale(1,1)"><path fill="none" stroke="#000000" d="M 400 496 L 502.4 496 L 502.4 511 L 400 511 L 400 496 Z Z" stroke-miterlimit="10"/></g><g transform="translate(-294,-110) scale(1,1)"><rect fill="#ffffff" stroke="none" x="400" y="510" width="256" height="178"/></g><g transform="translate(-294,-110) scale(1,1)"><path fill="none" stroke="#000000" d="M 400 510 L 656 510 L 656 688 L 400 688 L 400 510 Z Z" stroke-miterlimit="10"/></g><g transform="translate(-294,-110) scale(1,1)"><g><path fill="none" stroke="none"/><text fill="#000000" stroke="none" font-family="Arial" font-size="13px" font-style="normal" font-weight="bold" text-decoration="none" x="508.135009765625" y="530.5">activity</text></g></g><g transform="translate(-294,-110) scale(1,1)"><rect fill="#C0C0C0" stroke="none" x="447" y="551" width="176" height="128" opacity="0.2"/></g><g transform="translate(-294,-110) scale(1,1)"><rect fill="#ffffff" stroke="none" x="440" y="544" width="176" height="128"/></g><g transform="translate(-294,-110) scale(1,1)"><path fill="none" stroke="#000000" d="M 440 544 L 616 544 L 616 672 L 440 672 L 440 544 Z Z" stroke-miterlimit="10"/></g><g transform="translate(-294,-110) scale(1,1)"><path fill="none" stroke="#000000" d="M 440 582 L 616 582" stroke-miterlimit="10"/></g><g transform="translate(-294,-110) scale(1,1)"><path fill="none" stroke="#000000" d="M 440 620 L 616 620" stroke-miterlimit="10"/></g><g transform="translate(-294,-110) scale(1,1)"><g><path fill="none" stroke="none"/><text fill="#000000" stroke="none" font-family="Arial" font-size="13px" font-style="normal" font-weight="normal" text-decoration="none" x="497.648681640625" y="561.5">«abstract»</text></g></g><g transform="translate(-294,-110) scale(1,1)"><g><path fill="none" stroke="none"/><text fill="#000000" stroke="none" font-family="Arial" font-size="13px" font-style="italic" font-weight="bold" text-decoration="none" x="489.714111328125" y="576.5">GameActivity</text></g></g><g transform="translate(-294,-110) scale(1,1)"><g><path fill="none" stroke="none"/><text fill="#000000" stroke="none" font-family="Arial" font-size="13px" font-style="normal" font-weight="normal" text-decoration="none" x="445" y="599.5">+savegameStorage</text></g></g><g transform="translate(-294,-110) scale(1,1)"><g><path fill="none" stroke="none"/><text fill="#000000" stroke="none" font-family="Arial" font-size="13px" font-style="normal" font-weight="normal" text-decoration="none" x="445" y="614.5">+...</text></g></g><g transform="translate(-294,-110) scale(1,1)"><g><path fill="none" stroke="none"/><text fill="#000000" stroke="none" font-family="Arial" font-size="13px" font-style="italic" font-weight="normal" text-decoration="none" x="445" y="637.5">«abstract»+onLoadGame()</text></g></g><g transform="translate(-294,-110) scale(1,1)"><g><path fill="none" stroke="none"/><text fill="#000000" stroke="none" font-family="Arial" font-size="13px" font-style="italic" font-weight="normal" text-decoration="none" x="445" y="652.5">«abstract»+onSaveGame()</text></g></g><g transform="translate(-294,-110) scale(1,1)"><g><path fill="none" stroke="none"/><text fill="#000000" stroke="none" font-family="Arial" font-size="13px" font-style="normal" font-weight="normal" text-decoration="none" x="445" y="667.5">+...()</text></g></g><g transform="translate(-294,-110) scale(1,1)"><path fill="none" stroke="#000000" d="M 439 608 L 336 608 L 336 312 L 423 313" stroke-miterlimit="10"/></g><g transform="translate(-294,-110) scale(1,1)"><path fill="none" stroke="#000000" d="M 412.78961434563166 317.0924350683999 L 423 313 L 412.88637847683515 308.6739556536975" stroke-miterlimit="10"/></g><g transform="translate(-294,-110) scale(1,1)"><g><path fill="none" stroke="none"/><text fill="#000000" stroke="none" font-family="Arial" font-size="13px" font-style="normal" font-weight="normal" text-decoration="none" x="344.64697265625" y="451.5">+speichert und lädt Spielstände mit</text></g></g><g transform="translate(-294,-110) scale(1,1)"><path fill="none" stroke="#000000" d="M 496 358 L 496 392 L 656 392 L 656 358" stroke-miterlimit="10"/></g><g transform="translate(-294,-110) scale(1,1)"><path fill="none" stroke="#000000" d="M 660.209517756016 368.16267485762415 L 656 358 L 651.790482243984 368.16267485762415" stroke-miterlimit="10"/></g><g transform="translate(-294,-110) scale(1,1)"><g><path fill="none" stroke="none"/><text fill="#000000" stroke="none" font-family="Arial" font-size="13px" font-style="normal" font-weight="normal" text-decoration="none" x="543.5" y="387.5">+speichert</text></g></g><g transform="translate(-294,-110) scale(1,1)"><path fill="none" stroke="#000000" d="M 977 608 L 1072 608 L 1072 328 L 991 328" stroke-miterlimit="10"/></g><g transform="translate(-294,-110) scale(1,1)"><path fill="none" stroke="#000000" d="M 1001.1626748576241 323.790482243984 L 991 328 L 1001.1626748576241 332.209517756016" stroke-miterlimit="10"/></g><g transform="translate(-294,-110) scale(1,1)"><g><path fill="none" stroke="none"/><text fill="#000000" stroke="none" font-family="Arial" font-size="13px" font-style="normal" font-weight="normal" text-decoration="none" x="861.5" y="456.5">+holt sich Karten von Spielständen</text></g></g><g transform="translate(-294,-110) scale(1,1)"><path fill="none" stroke="#000000" d="M 864 271 L 864 240 L 496 240 L 496 271" stroke-miterlimit="10"/></g><g transform="translate(-294,-110) scale(1,1)"><path fill="none" stroke="#000000" d="M 491.790482243984 260.83732514237585 L 496 271 L 500.209517756016 260.83732514237585" stroke-miterlimit="10"/></g><g transform="translate(-294,-110) scale(1,1)"><g><path fill="none" stroke="none"/><text fill="#000000" stroke="none" font-family="Arial" font-size="13px" font-style="normal" font-weight="normal" text-decoration="none" x="616.5" y="261.5">+lädt Spielstände aus</text></g></g></g></svg>