<svg version="1.1" xmlns="http://www.w3.org/2000/svg" xmlns:xlink="http://www.w3.org/1999/xlink" width="627" height="388"><defs/><g><g transform="translate(-302,-494) scale(1,1)"><rect fill="#C0C0C0" stroke="none" x="319" y="511" width="115.19999999999999" height="15" opacity="0.2"/></g><g transform="translate(-302,-494) scale(1,1)"><rect fill="#C0C0C0" stroke="none" x="319" y="525" width="288" height="178" opacity="0.2"/></g><g transform="translate(-302,-494) scale(1,1)"><rect fill="#ffffff" stroke="none" x="312" y="519" width="288" height="177"/></g><g transform="translate(-302,-494) scale(1,1)"><path fill="none" stroke="#000000" d="M 312 519 L 600 519 L 600 696 L 312 696 L 312 519 Z Z" stroke-miterlimit="10"/></g><g transform="translate(-302,-494) scale(1,1)"><rect fill="#ffffff" stroke="none" x="312" y="504" width="115.19999999999999" height="15"/></g><g transform="translate(-302,-494) scale(1,1)"><path fill="none" stroke="#000000" d="M 312 504 L 427.2 504 L 427.2 519 L 312 519 L 312 504 Z Z" stroke-miterlimit="10"/></g><g transform="translate(-302,-494) scale(1,1)"><rect fill="#ffffff" stroke="none" x="312" y="518" width="288" height="178"/></g><g transform="translate(-302,-494) scale(1,1)"><path fill="none" stroke="#000000" d="M 312 518 L 600 518 L 600 696 L 312 696 L 312 518 Z Z" stroke-miterlimit="10"/></g><g transform="translate(-302,-494) scale(1,1)"><g><path fill="none" stroke="none"/><text fill="#000000" stroke="none" font-family="Arial" font-size="13px" font-style="normal" font-weight="bold" text-decoration="none" x="436.135009765625" y="538.5">activity</text></g></g><g transform="translate(-302,-494) scale(1,1)"><rect fill="#C0C0C0" stroke="none" x="639" y="511" width="114.79999999999995" height="15" opacity="0.2"/></g><g transform="translate(-302,-494) scale(1,1)"><rect fill="#C0C0C0" stroke="none" x="639" y="525" width="287" height="354" opacity="0.2"/></g><g transform="translate(-302,-494) scale(1,1)"><rect fill="#ffffff" stroke="none" x="632" y="519" width="287" height="353"/></g><g transform="translate(-302,-494) scale(1,1)"><path fill="none" stroke="#000000" d="M 632 519 L 919 519 L 919 872 L 632 872 L 632 519 Z Z" stroke-miterlimit="10"/></g><g transform="translate(-302,-494) scale(1,1)"><rect fill="#ffffff" stroke="none" x="632" y="504" width="114.79999999999995" height="15"/></g><g transform="translate(-302,-494) scale(1,1)"><path fill="none" stroke="#000000" d="M 632 504 L 746.8 504 L 746.8 519 L 632 519 L 632 504 Z Z" stroke-miterlimit="10"/></g><g transform="translate(-302,-494) scale(1,1)"><rect fill="#ffffff" stroke="none" x="632" y="518" width="287" height="354"/></g><g transform="translate(-302,-494) scale(1,1)"><path fill="none" stroke="#000000" d="M 632 518 L 919 518 L 919 872 L 632 872 L 632 518 Z Z" stroke-miterlimit="10"/></g><g transform="translate(-302,-494) scale(1,1)"><g><path fill="none" stroke="none"/><text fill="#000000" stroke="none" font-family="Arial" font-size="13px" font-style="normal" font-weight="bold" text-decoration="none" x="749.84912109375" y="538.5">fragment</text></g></g><g transform="translate(-302,-494) scale(1,1)"><rect fill="#C0C0C0" stroke="none" x="695" y="695" width="168" height="88" opacity="0.2"/></g><g transform="translate(-302,-494) scale(1,1)"><rect fill="#ffffff" stroke="none" x="688" y="688" width="168" height="88"/></g><g transform="translate(-302,-494) scale(1,1)"><path fill="none" stroke="#000000" d="M 688 688 L 856 688 L 856 776 L 688 776 L 688 688 Z Z" stroke-miterlimit="10"/></g><g transform="translate(-302,-494) scale(1,1)"><path fill="none" stroke="#000000" d="M 688 713 L 856 713" stroke-miterlimit="10"/></g><g transform="translate(-302,-494) scale(1,1)"><path fill="none" stroke="#000000" d="M 688 736 L 856 736" stroke-miterlimit="10"/></g><g transform="translate(-302,-494) scale(1,1)"><g><path fill="none" stroke="none"/><text fill="#000000" stroke="none" font-family="Arial" font-size="13px" font-style="normal" font-weight="bold" text-decoration="none" x="760.075927734375" y="707.5">Hub</text></g></g><g transform="translate(-302,-494) scale(1,1)"><g><path fill="none" stroke="none"/><text fill="#000000" stroke="none" font-family="Arial" font-size="13px" font-style="normal" font-weight="normal" text-decoration="none" x="693" y="730.5">+...</text></g></g><g transform="translate(-302,-494) scale(1,1)"><g><path fill="none" stroke="none"/><text fill="#000000" stroke="none" font-family="Arial" font-size="13px" font-style="normal" font-weight="normal" text-decoration="none" x="693" y="753.5">+...()</text></g></g><g transform="translate(-302,-494) scale(1,1)"><rect fill="#C0C0C0" stroke="none" x="695" y="575" width="168" height="88" opacity="0.2"/></g><g transform="translate(-302,-494) scale(1,1)"><rect fill="#ffffff" stroke="none" x="688" y="568" width="168" height="88"/></g><g transform="translate(-302,-494) scale(1,1)"><path fill="none" stroke="#000000" d="M 688 568 L 856 568 L 856 656 L 688 656 L 688 568 Z Z" stroke-miterlimit="10"/></g><g transform="translate(-302,-494) scale(1,1)"><path fill="none" stroke="#000000" d="M 688 593 L 856 593" stroke-miterlimit="10"/></g><g transform="translate(-302,-494) scale(1,1)"><path fill="none" stroke="#000000" d="M 688 616 L 856 616" stroke-miterlimit="10"/></g><g transform="translate(-302,-494) scale(1,1)"><g><path fill="none" stroke="none"/><text fill="#000000" stroke="none" font-family="Arial" font-size="13px" font-style="normal" font-weight="bold" text-decoration="none" x="727.56005859375" y="587.5">GameSelection</text></g></g><g transform="translate(-302,-494) scale(1,1)"><g><path fill="none" stroke="none"/><text fill="#000000" stroke="none" font-family="Arial" font-size="13px" font-style="normal" font-weight="normal" text-decoration="none" x="693" y="610.5">+...</text></g></g><g transform="translate(-302,-494) scale(1,1)"><g><path fill="none" stroke="none"/><text fill="#000000" stroke="none" font-family="Arial" font-size="13px" font-style="normal" font-weight="normal" text-decoration="none" x="693" y="633.5">+...()</text></g></g><g transform="translate(-302,-494) scale(1,1)"><rect fill="#C0C0C0" stroke="none" x="359" y="575" width="207.33251953125" height="100" opacity="0.2"/></g><g transform="translate(-302,-494) scale(1,1)"><rect fill="#ffffff" stroke="none" x="352" y="568" width="207.33251953125" height="100"/></g><g transform="translate(-302,-494) scale(1,1)"><path fill="none" stroke="#000000" d="M 352 568 L 559.33251953125 568 L 559.33251953125 668 L 352 668 L 352 568 Z Z" stroke-miterlimit="10"/></g><g transform="translate(-302,-494) scale(1,1)"><path fill="none" stroke="#000000" d="M 352 593 L 559.33251953125 593" stroke-miterlimit="10"/></g><g transform="translate(-302,-494) scale(1,1)"><path fill="none" stroke="#000000" d="M 352 631 L 559.33251953125 631" stroke-miterlimit="10"/></g><g transform="translate(-302,-494) scale(1,1)"><g><path fill="none" stroke="none"/><text fill="#000000" stroke="none" font-family="Arial" font-size="13px" font-style="normal" font-weight="bold" text-decoration="none" x="443.7421875" y="587.5">Hub</text></g></g><g transform="translate(-302,-494) scale(1,1)"><g><path fill="none" stroke="none"/><text fill="#000000" stroke="none" font-family="Arial" font-size="13px" font-style="normal" font-weight="normal" text-decoration="none" x="357" y="610.5">+currentTag</text></g></g><g transform="translate(-302,-494) scale(1,1)"><g><path fill="none" stroke="none"/><text fill="#000000" stroke="none" font-family="Arial" font-size="13px" font-style="normal" font-weight="normal" text-decoration="none" x="357" y="625.5">+...</text></g></g><g transform="translate(-302,-494) scale(1,1)"><g><path fill="none" stroke="none"/><text fill="#000000" stroke="none" font-family="Arial" font-size="13px" font-style="normal" font-weight="normal" text-decoration="none" x="357" y="648.5">-getHomeFragment()</text></g></g><g transform="translate(-302,-494) scale(1,1)"><g><path fill="none" stroke="none"/><text fill="#000000" stroke="none" font-family="Arial" font-size="13px" font-style="normal" font-weight="normal" text-decoration="none" x="357" y="663.5">+...()</text></g></g><g transform="translate(-302,-494) scale(1,1)"><path fill="none" stroke="#000000" d="M 456 669 L 456 720 L 648 720 L 648 616 L 687 615" stroke-miterlimit="10"/></g><g transform="translate(-302,-494) scale(1,1)"><path fill="none" stroke="#000000" d="M 676.9485651713802 619.4686304262053 L 687 615 L 676.732763395042 611.0523611490146" stroke-miterlimit="10"/></g><g transform="translate(-302,-494) scale(1,1)"><path fill="none" stroke="#000000" d="M 456 669 L 456 720 L 648 720 L 648 736 L 687 735" stroke-miterlimit="10"/></g><g transform="translate(-302,-494) scale(1,1)"><path fill="none" stroke="#000000" d="M 676.9485651713802 739.4686304262053 L 687 735 L 676.732763395042 731.0523611490146" stroke-miterlimit="10"/></g><g transform="translate(-302,-494) scale(1,1)"><g><path fill="none" stroke="none"/><text fill="#000000" stroke="none" font-family="Arial" font-size="13px" font-style="normal" font-weight="normal" text-decoration="none" x="500.28271484375" y="740.5">+ruft Fragment</text></g></g><g transform="translate(-302,-494) scale(1,1)"><rect fill="#C0C0C0" stroke="none" x="695" y="807" width="168" height="57" opacity="0.2"/></g><g transform="translate(-302,-494) scale(1,1)"><rect fill="#ffffff" stroke="none" x="688" y="800" width="168" height="57"/></g><g transform="translate(-302,-494) scale(1,1)"><path fill="none" stroke="#000000" d="M 688 800 L 856 800 L 856 857 L 688 857 L 688 800 Z Z" stroke-miterlimit="10"/></g><g transform="translate(-302,-494) scale(1,1)"><path fill="none" stroke="#000000" d="M 688 825 L 856 825" stroke-miterlimit="10"/></g><g transform="translate(-302,-494) scale(1,1)"><path fill="none" stroke="#000000" d="M 688 835 L 856 835" stroke-miterlimit="10"/></g><g transform="translate(-302,-494) scale(1,1)"><g><path fill="none" stroke="none"/><text fill="#000000" stroke="none" font-family="Arial" font-size="13px" font-style="normal" font-weight="bold" text-decoration="none" x="702.6328125" y="819.5">GameSelectionCallback</text></g></g><g transform="translate(-302,-494) scale(1,1)"><g><path fill="none" stroke="none"/><text fill="#000000" stroke="none" font-family="Arial" font-size="13px" font-style="normal" font-weight="normal" text-decoration="none" x="693" y="852.5">+...()</text></g></g><g transform="translate(-302,-494) scale(1,1)"><path fill="none" stroke="#000000" d="M 772 799 L 772 777" stroke-miterlimit="10"/></g><g transform="translate(-302,-494) scale(1,1)"><path fill="#FFFFFF" stroke="none" d="M 765 784 C 765 780.1340064 768.1340064 777 772 777 C 775.8659936 777 779 780.1340064 779 784 C 779 787.8659936 775.8659936 791 772 791 C 768.1340064 791 765 787.8659936 765 784 Z"/></g><g transform="translate(-302,-494) scale(1,1)"><path fill="none" stroke="#000000" d="M 765 784 C 765 780.1340064 768.1340064 777 772 777 C 775.8659936 777 779 780.1340064 779 784 C 779 787.8659936 775.8659936 791 772 791 C 768.1340064 791 765 787.8659936 765 784 Z" stroke-miterlimit="10"/></g><g transform="translate(-302,-494) scale(1,1)"><path fill="none" stroke="#000000" d="M 772 791 L 772 777" stroke-miterlimit="10"/></g><g transform="translate(-302,-494) scale(1,1)"><path fill="none" stroke="#000000" d="M 779 784 L 765 784" stroke-miterlimit="10"/></g><g transform="translate(-302,-494) scale(1,1)"><rect fill="#C0C0C0" stroke="none" x="351" y="799" width="222.892578125" height="72" opacity="0.2"/></g><g transform="translate(-302,-494) scale(1,1)"><rect fill="#ffffff" stroke="none" x="344" y="792" width="222.892578125" height="72"/></g><g transform="translate(-302,-494) scale(1,1)"><path fill="none" stroke="#000000" d="M 344 792 L 566.892578125 792 L 566.892578125 864 L 344 864 L 344 792 Z Z" stroke-miterlimit="10"/></g><g transform="translate(-302,-494) scale(1,1)"><path fill="none" stroke="#000000" d="M 344 817 L 566.892578125 817" stroke-miterlimit="10"/></g><g transform="translate(-302,-494) scale(1,1)"><path fill="none" stroke="#000000" d="M 344 840 L 566.892578125 840" stroke-miterlimit="10"/></g><g transform="translate(-302,-494) scale(1,1)"><g><path fill="none" stroke="none"/><text fill="#000000" stroke="none" font-family="Arial" font-size="13px" font-style="normal" font-weight="bold" text-decoration="none" x="358.990478515625" y="811.5">ItemTouchHelper.SimpleCallback</text></g></g><g transform="translate(-302,-494) scale(1,1)"><g><path fill="none" stroke="none"/><text fill="#000000" stroke="none" font-family="Arial" font-size="13px" font-style="normal" font-weight="normal" text-decoration="none" x="349" y="834.5">+...</text></g></g><g transform="translate(-302,-494) scale(1,1)"><g><path fill="none" stroke="none"/><text fill="#000000" stroke="none" font-family="Arial" font-size="13px" font-style="normal" font-weight="normal" text-decoration="none" x="349" y="857.5">+...()</text></g></g><g transform="translate(-302,-494) scale(1,1)"><path fill="none" stroke="#000000" d="M 687 828 L 568 828" stroke-miterlimit="10"/></g><g transform="translate(-302,-494) scale(1,1)"><path fill="#FFFFFF" stroke="none" d="M 588.3253497152483 819.580964487968 L 568 828 L 588.3253497152483 836.419035512032"/></g><g transform="translate(-302,-494) scale(1,1)"><path fill="none" stroke="#000000" d="M 588.3253497152483 819.580964487968 L 568 828 L 588.3253497152483 836.419035512032 L 588.3253497152483 819.580964487968" stroke-miterlimit="10"/></g></g></svg>